<svg width="22" height="24" viewBox="0 0 22 24" fill="none" xmlns="http://www.w3.org/2000/svg">
<path d="M19.3333 1.33333V2.66667H16.6666V1.33333C16.6666 0.6 16.0666 0 15.3333 0H7.33329C6.59996 0 5.99996 0.6 5.99996 1.33333V2.66667H3.33329V1.33333C3.33329 0.6 2.73329 0 1.99996 0C1.26663 0 0.666626 0.6 0.666626 1.33333V22.6667C0.666626 23.4 1.26663 24 1.99996 24C2.73329 24 3.33329 23.4 3.33329 22.6667V21.3333H5.99996V22.6667C5.99996 23.4 6.59996 24 7.33329 24H15.3333C16.0666 24 16.6666 23.4 16.6666 22.6667V21.3333H19.3333V22.6667C19.3333 23.4 19.9333 24 20.6666 24C21.4 24 22 23.4 22 22.6667V1.33333C22 0.6 21.4 0 20.6666 0C19.9333 0 19.3333 0.6 19.3333 1.33333ZM5.99996 18.6667H3.33329V16H5.99996V18.6667ZM5.99996 13.3333H3.33329V10.6667H5.99996V13.3333ZM5.99996 8H3.33329V5.33333H5.99996V8ZM19.3333 18.6667H16.6666V16H19.3333V18.6667ZM19.3333 13.3333H16.6666V10.6667H19.3333V13.3333ZM19.3333 8H16.6666V5.33333H19.3333V8Z" fill="white"/>
</svg>
