<svg width="31" height="30" viewBox="0 0 31 30" fill="none" xmlns="http://www.w3.org/2000/svg">
<path d="M9.53325 0H22.1333C26.9333 0 30.8333 3.9 30.8333 8.7V21.3C30.8333 23.6074 29.9166 25.8203 28.2851 27.4518C26.6535 29.0834 24.4406 30 22.1333 30H9.53325C4.73325 30 0.833252 26.1 0.833252 21.3V8.7C0.833252 6.39262 1.74986 4.17974 3.38142 2.54817C5.01299 0.916605 7.22587 0 9.53325 0ZM9.23325 3C7.80108 3 6.42757 3.56893 5.41488 4.58162C4.40218 5.59432 3.83325 6.96783 3.83325 8.4V21.6C3.83325 24.585 6.24825 27 9.23325 27H22.4333C23.8654 27 25.2389 26.4311 26.2516 25.4184C27.2643 24.4057 27.8333 23.0322 27.8333 21.6V8.4C27.8333 5.415 25.4183 3 22.4333 3H9.23325ZM23.7083 5.25C24.2055 5.25 24.6824 5.44754 25.0341 5.79917C25.3857 6.15081 25.5833 6.62772 25.5833 7.125C25.5833 7.62228 25.3857 8.09919 25.0341 8.45082C24.6824 8.80246 24.2055 9 23.7083 9C23.211 9 22.7341 8.80246 22.3824 8.45082C22.0308 8.09919 21.8333 7.62228 21.8333 7.125C21.8333 6.62772 22.0308 6.15081 22.3824 5.79917C22.7341 5.44754 23.211 5.25 23.7083 5.25ZM15.8333 7.5C17.8224 7.5 19.73 8.29018 21.1366 9.6967C22.5431 11.1032 23.3333 13.0109 23.3333 15C23.3333 16.9891 22.5431 18.8968 21.1366 20.3033C19.73 21.7098 17.8224 22.5 15.8333 22.5C13.8441 22.5 11.9365 21.7098 10.53 20.3033C9.12343 18.8968 8.33325 16.9891 8.33325 15C8.33325 13.0109 9.12343 11.1032 10.53 9.6967C11.9365 8.29018 13.8441 7.5 15.8333 7.5ZM15.8333 10.5C14.6398 10.5 13.4952 10.9741 12.6513 11.818C11.8074 12.6619 11.3333 13.8065 11.3333 15C11.3333 16.1935 11.8074 17.3381 12.6513 18.182C13.4952 19.0259 14.6398 19.5 15.8333 19.5C17.0267 19.5 18.1713 19.0259 19.0152 18.182C19.8591 17.3381 20.3333 16.1935 20.3333 15C20.3333 13.8065 19.8591 12.6619 19.0152 11.818C18.1713 10.9741 17.0267 10.5 15.8333 10.5Z" fill="white"/>
</svg>
