<svg width="61" height="61" viewBox="0 0 61 61" fill="none" xmlns="http://www.w3.org/2000/svg">
<g clip-path="url(#clip0_5_50)">
<path d="M33.0926 22.0169L24.6113 0.0192871L60.6441 0.0192871L52.1334 22.0809C51.7673 22.1579 51.4072 22.2559 51.0557 22.3744L42.6484 7.3005L34.2166 22.2853C33.8493 22.1736 33.4738 22.0839 33.0926 22.0169ZM5.38236 58.0263C16.7158 65.023 29.2869 51.4844 46.4104 49.7789C56.2437 49.2667 62.9274 43.976 59.1192 35.7856C52.0385 39.6187 45.421 34.5958 45.4673 29.5556H40.0869C39.9102 34.0555 36.0592 37.5957 30.0897 37.0694C25.4172 43.213 20.0017 46.6647 13.8569 48.4192C9.70369 46.7347 5.79529 42.6314 7.56729 37.1507C6.79621 37.0751 6.04027 36.9083 5.31996 36.6549C-0.392308 46.0298 -1.09817 53.4389 5.38236 58.0263ZM13.8198 29.5563C13.8198 25.9955 9.40396 23.7581 5.89049 25.5384C2.37703 27.3187 2.37676 31.7939 5.89049 33.5741C9.40396 35.3545 13.8198 33.117 13.8198 29.5563ZM36.6742 29.5121C36.6742 25.9515 32.2582 23.7139 28.7448 25.4943C25.2313 27.2748 25.2312 31.7497 28.7448 33.5299C32.2584 35.3103 36.6741 33.0728 36.6741 29.5121H36.6742ZM59.4428 29.5121C59.4428 25.9515 55.0268 23.7139 51.5133 25.4943C47.9998 27.2748 47.9997 31.7497 51.5133 33.5299C55.0269 35.3103 59.4428 33.0728 59.4428 29.5121Z" fill="#00FFB2"/>
</g>
<defs>
<clipPath id="clip0_5_50">
<rect width="60" height="60" fill="white" transform="translate(0.775681 0.0192871)"/>
</clipPath>
</defs>
</svg>
