<svg width="55" height="61" viewBox="0 0 55 61" fill="none" xmlns="http://www.w3.org/2000/svg">
<path d="M27.4318 60.0779C26.6293 60.0779 25.8293 59.8679 25.1269 59.4604L17.7868 55.1179C16.6918 54.5054 17.2269 54.2879 17.5868 54.1604C19.0493 53.6529 19.3443 53.5354 20.9068 52.6504C21.0693 52.5579 21.2843 52.5929 21.4518 52.6929L27.0919 56.0404C27.1966 56.096 27.3133 56.125 27.4318 56.1251C27.5504 56.125 27.6671 56.096 27.7718 56.0404L49.7593 43.3504C49.8618 43.2886 49.9466 43.2013 50.0053 43.097C50.064 42.9928 50.0947 42.875 50.0943 42.7554V17.3804C50.0942 17.2586 50.0625 17.1389 50.0025 17.0329C49.9425 16.9269 49.8562 16.8382 49.7519 16.7754L27.7743 4.09539C27.6708 4.03758 27.5542 4.00724 27.4356 4.00724C27.317 4.00724 27.2004 4.03758 27.0968 4.09539L5.12435 16.7779C5.01961 16.8401 4.93263 16.9282 4.87177 17.0337C4.81091 17.1392 4.77822 17.2586 4.77685 17.3804V42.7554C4.77733 42.8754 4.80979 42.993 4.87086 43.0963C4.93194 43.1996 5.01944 43.2847 5.12435 43.3429L11.1468 46.8229C14.4143 48.4579 16.4168 46.5329 16.4168 44.5979V19.5454C16.4168 19.1904 16.7018 18.9129 17.0568 18.9129H19.8443C20.1918 18.9129 20.4818 19.1929 20.4818 19.5454V44.5979C20.4818 48.9604 18.1068 51.4604 13.9718 51.4604C12.7018 51.4604 11.6993 51.4604 8.90685 50.0829L3.13685 46.7654C2.4355 46.357 1.85354 45.7717 1.44908 45.0681C1.04461 44.3644 0.831789 43.567 0.831848 42.7554V17.3804C0.831848 15.7329 1.71435 14.1929 3.13685 13.3729L25.1243 0.667885C25.8326 0.280355 26.627 0.07724 27.4343 0.07724C28.2417 0.07724 29.0361 0.280355 29.7444 0.667885L51.7293 13.3729C53.1543 14.1954 54.0394 15.7329 54.0394 17.3804V42.7554C54.0379 43.5673 53.8239 44.3646 53.4186 45.0682C53.0134 45.7717 52.431 46.3568 51.7293 46.7654L29.7444 59.4604C29.0443 59.8679 28.2468 60.0779 27.4318 60.0779ZM45.1843 35.0604C45.1843 30.3104 41.9743 29.0454 35.2169 28.1529C28.3894 27.2504 27.6943 26.7829 27.6943 25.1854C27.6943 23.8654 28.2818 22.1029 33.3393 22.1029C37.8568 22.1029 39.5218 23.0754 40.2068 26.1204C40.2381 26.2611 40.3162 26.387 40.4284 26.4774C40.5406 26.5678 40.6802 26.6173 40.8243 26.6179H43.6768C43.764 26.617 43.85 26.5986 43.9299 26.5639C44.0098 26.5291 44.0819 26.4786 44.1418 26.4154C44.2022 26.3498 44.2483 26.2724 44.2771 26.188C44.306 26.1036 44.317 26.0142 44.3093 25.9254C43.8669 20.6804 40.3818 18.2354 33.3393 18.2354C27.0693 18.2354 23.3293 20.8804 23.3293 25.3179C23.3293 30.1304 27.0493 31.4604 33.0668 32.0554C40.2668 32.7604 40.8243 33.8129 40.8243 35.2279C40.8243 37.6854 38.8518 38.7329 34.2193 38.7329C28.4018 38.7329 27.1218 37.2729 26.6918 34.3779C26.668 34.2275 26.5911 34.0907 26.4751 33.9921C26.359 33.8935 26.2116 33.8397 26.0593 33.8404H23.2169C23.1335 33.8397 23.0508 33.8556 22.9736 33.8871C22.8965 33.9187 22.8263 33.9652 22.7672 34.024C22.7082 34.0828 22.6614 34.1528 22.6296 34.2299C22.5977 34.3069 22.5815 34.3895 22.5818 34.4729C22.5818 38.1779 24.5968 42.5929 34.2193 42.5929C41.1894 42.5954 45.1843 39.8529 45.1843 35.0604Z" fill="#00FFB2"/>
</svg>
