<svg width="15" height="10" viewBox="0 0 15 10" fill="none" xmlns="http://www.w3.org/2000/svg">
<path d="M7.49994 0.274994C5.58505 0.274994 4.38824 1.32499 3.90952 3.42499C4.6276 2.37499 5.46537 1.98124 6.42282 2.24374C6.9691 2.39351 7.35955 2.82814 7.79171 3.30921C8.49575 4.09293 9.3106 4.99999 11.0904 4.99999C13.0053 4.99999 14.2021 3.94999 14.6808 1.84999C13.9627 2.89999 13.1249 3.29374 12.1675 3.03124C11.6212 2.88148 11.2308 2.44685 10.7986 1.96577C10.0945 1.18205 9.27971 0.274994 7.49994 0.274994ZM3.90952 4.99999C1.99462 4.99999 0.797815 6.04999 0.319092 8.14999C1.03718 7.09999 1.87494 6.70624 2.83239 6.96874C3.37868 7.11851 3.76912 7.55314 4.20128 8.03425C4.90533 8.81793 5.72018 9.72499 7.49994 9.72499C9.41484 9.72499 10.6116 8.67499 11.0904 6.57499C10.3723 7.62499 9.53452 8.01874 8.57707 7.75624C8.03078 7.60648 7.64034 7.17185 7.20818 6.69074C6.50413 5.90705 5.68928 4.99999 3.90952 4.99999Z" fill="#ffffff"/>
</svg>