<svg width="61" height="61" viewBox="0 0 61 61" fill="none" xmlns="http://www.w3.org/2000/svg">
<path d="M40.0192 32.2244V28.2244H44.0192V32.2244H40.0192Z" fill="white"/>
<path fill-rule="evenodd" clip-rule="evenodd" d="M30.0192 1.90836L56.0192 17.0764L56.0192 43.3724L30.0192 58.5444L4.01923 43.3724L4.01923 17.0764L30.0192 1.90436V1.90836ZM25.3472 16.2244C21.8124 16.2244 18.4224 17.6286 15.9229 20.128C13.4234 22.6275 12.0192 26.0176 12.0192 29.5524L12.0192 30.8964C12.0198 33.1675 12.6007 35.4009 13.7068 37.3844C14.8129 39.368 16.4076 41.036 18.3395 42.2302C20.2714 43.4243 22.4764 44.105 24.7452 44.2076C27.014 44.3102 29.2715 43.8313 31.3032 42.8164L32.9152 42.0164L31.1232 38.4364L29.5152 39.2364C28.0939 39.9475 26.5143 40.2835 24.9266 40.2125C23.3389 40.1415 21.7956 39.6658 20.4434 38.8306C19.0912 37.9954 17.975 36.8284 17.2007 35.4405C16.4263 34.0525 16.0197 32.4897 16.0192 30.9004V29.5564C16.0194 27.9668 16.4258 26.4036 17.1998 25.0152C17.9739 23.6268 19.0899 22.4592 20.4419 21.6233C21.794 20.7874 23.3372 20.3109 24.9252 20.2389C26.5131 20.167 28.0931 20.5021 29.5152 21.2124L31.1232 22.0164L32.9152 18.4404L31.3032 17.6364C29.4531 16.7094 27.4166 16.226 25.3472 16.2244ZM36.0192 20.2244V24.2244H32.0192L32.0192 28.2244H36.0192V32.2244H32.0192V36.2244H36.0192V40.2244H40.0192V36.2244H44.0192V40.2244H48.0192V36.2244L52.0192 36.2244V32.2244H48.0192V28.2244H52.0192V24.2244H48.0192V20.2244L44.0192 20.2244V24.2244H40.0192V20.2244H36.0192Z" fill="white"/>
</svg>
