<svg width="61" height="61" viewBox="0 0 61 61" fill="none" xmlns="http://www.w3.org/2000/svg">
<g clip-path="url(#clip0_5_56)">
<path fill-rule="evenodd" clip-rule="evenodd" d="M5.48077 0.775696L10.2628 54.9437L30.9808 60.7757L51.6988 54.9437L56.4808 0.775696L5.48077 0.775696ZM46.2118 18.3317L30.9628 25.1507L30.9238 25.1657L45.6748 25.1657L43.9858 45.4517L30.9838 49.4207L30.9628 49.4117V49.4207L17.8888 45.3767L17.0488 35.1617H23.5348L23.9548 40.4537L30.9028 42.2867L30.9628 42.2687V42.2777L38.1538 40.1597L38.6458 31.6337L30.9628 31.6097L16.6228 31.5617L16.1338 25.1657L30.9628 18.7067L31.8268 18.3317H15.5728L14.7958 11.7917L46.8448 11.7917L46.2118 18.3317Z" fill="white"/>
</g>
<defs>
<clipPath id="clip0_5_56">
<rect width="60" height="60" fill="white" transform="translate(0.980774 0.775696)"/>
</clipPath>
</defs>
</svg>
