<svg width="51" height="37" viewBox="0 0 51 37" fill="none" xmlns="http://www.w3.org/2000/svg">
<path d="M49.7066 14.3881C49.5566 14.2881 48.3066 13.3131 45.6066 13.3131C44.9066 13.3131 44.2066 13.3881 43.5066 13.5131C42.9816 10.0131 40.0566 8.23813 39.9316 8.16314L39.2066 7.73813L38.7566 8.41313C38.1566 9.31313 37.6816 10.3381 37.4816 11.3881C36.9816 13.3881 37.2816 15.2881 38.3066 16.9131C37.0816 17.6131 35.0816 17.7881 34.6566 17.7881L1.73158 17.7881C0.881579 17.7881 0.18158 18.4881 0.18158 19.3631C0.18158 22.2381 0.631579 25.1131 1.63158 27.8131C2.75658 30.7881 4.45658 32.9881 6.63158 34.3381C9.08158 35.8381 13.1066 36.6881 17.6816 36.6881C19.6566 36.6881 21.7066 36.5131 23.7316 36.1381C26.5316 35.6381 29.2316 34.6631 31.7066 33.2381C33.7564 32.066 35.591 30.5526 37.1316 28.7631C39.7566 25.8381 41.3066 22.5131 42.4316 19.6381H42.9066C45.7566 19.6381 47.5316 18.4881 48.5066 17.5131C49.1566 16.9131 49.6316 16.1881 49.9816 15.3381L50.1816 14.7381L49.7066 14.3881ZM4.80658 16.8631H9.20658C9.40658 16.8631 9.60658 16.6881 9.60658 16.4631V12.5131C9.60658 12.3131 9.43158 12.1131 9.20658 12.1131H4.80658C4.58158 12.1131 4.40658 12.2881 4.40658 12.5131V16.4631C4.43158 16.6881 4.58158 16.8631 4.80658 16.8631ZM10.8816 16.8631H15.2816C15.4816 16.8631 15.6816 16.6881 15.6816 16.4631V12.5131C15.6816 12.3131 15.5066 12.1131 15.2816 12.1131H10.8816C10.6566 12.1131 10.4816 12.2881 10.4816 12.5131V16.4631C10.5066 16.6881 10.6566 16.8631 10.8816 16.8631ZM17.0566 16.8631H21.4316C21.6816 16.8631 21.8566 16.6881 21.8566 16.4631V12.5131C21.8566 12.3131 21.7066 12.1131 21.4316 12.1131H17.0566C16.8566 12.1131 16.6816 12.2881 16.6816 12.5131V16.4631C16.6816 16.6881 16.8316 16.8631 17.0566 16.8631ZM23.1566 16.8631H27.5816C27.7816 16.8631 27.9566 16.6881 27.9566 16.4631V12.5131C27.9566 12.3131 27.8066 12.1131 27.5816 12.1131H23.1566C22.9566 12.1131 22.7816 12.2881 22.7816 12.5131V16.4631C22.7816 16.6881 22.9566 16.8631 23.1566 16.8631ZM10.8816 11.2631H15.2816C15.4816 11.2631 15.6816 11.0381 15.6816 10.8131V6.88813C15.6816 6.66313 15.5066 6.48813 15.2816 6.48813H10.8816C10.6566 6.48813 10.4816 6.63813 10.4816 6.88813V10.8131C10.5066 11.0381 10.6566 11.2631 10.8816 11.2631ZM17.0566 11.2631H21.4316C21.6816 11.2631 21.8566 11.0381 21.8566 10.8131V6.88813C21.8566 6.66313 21.7066 6.48813 21.4316 6.48813H17.0566C16.8566 6.48813 16.6816 6.63813 16.6816 6.88813V10.8131C16.6816 11.0381 16.8316 11.2631 17.0566 11.2631ZM23.1566 11.2631H27.5816C27.7816 11.2631 27.9566 11.0381 27.9566 10.8131V6.88813C27.9566 6.66313 27.7816 6.48813 27.5816 6.48813L23.1566 6.48813C22.9566 6.48813 22.7816 6.63813 22.7816 6.88813V10.8131C22.7816 11.0381 22.9566 11.2631 23.1566 11.2631ZM23.1566 5.56313L27.5816 5.56313C27.7816 5.56313 27.9566 5.38813 27.9566 5.16313V1.26313C27.9566 1.01313 27.7816 0.838135 27.5816 0.838135L23.1566 0.838135C22.9566 0.838135 22.7816 0.988135 22.7816 1.26313V5.16313C22.7816 5.36313 22.9566 5.56313 23.1566 5.56313ZM29.3066 16.8631L33.7066 16.8631C33.9316 16.8631 34.1066 16.6881 34.1066 16.4631V12.5131C34.1066 12.3131 33.9316 12.1131 33.7066 12.1131H29.3066C29.1066 12.1131 28.9316 12.2881 28.9316 12.5131V16.4631C28.9316 16.6881 29.1066 16.8631 29.3066 16.8631Z" fill="white"/>
</svg>
