<svg width="61" height="61" viewBox="0 0 61 61" fill="none" xmlns="http://www.w3.org/2000/svg">
<path d="M41.2692 15.4244C41.2692 15.4244 24.1692 19.6994 32.3692 29.1244C34.7942 31.8994 31.7442 34.3994 31.7442 34.3994C31.7442 34.3994 37.8692 31.2744 35.0192 27.2744C32.3692 23.5994 30.3692 21.7744 41.2692 15.4244ZM30.0942 18.4244C40.2192 10.4244 35.0192 5.22437 35.0192 5.22437C37.1192 13.4744 27.6192 15.9744 24.1942 21.1244C21.8442 24.6244 25.3442 28.3994 30.0192 32.7244C28.2442 28.4744 21.9692 24.8244 30.0942 18.4244ZM23.4442 43.8994C15.7442 46.0494 28.1442 50.4744 37.9192 46.2994C36.9692 45.9244 36.0442 45.4744 35.1692 44.9494C31.7692 45.7244 28.2692 45.8744 24.8192 45.3994C21.5442 44.9994 23.4442 43.8994 23.4442 43.8994ZM36.7442 39.6994C32.3692 40.6494 27.8442 40.8744 23.3942 40.3494C20.1192 40.0244 22.2692 38.4244 22.2692 38.4244C13.7692 41.2494 26.9692 44.4244 38.7692 40.9744C38.0442 40.6994 37.3442 40.2244 36.7442 39.6994ZM45.2942 47.9494C45.2942 47.9494 46.7192 49.1244 43.7692 50.0244C38.0692 51.7244 20.1942 52.2494 15.2442 50.0994C13.4692 49.3244 16.8192 48.2494 17.8692 48.0244C18.4442 47.8744 19.0192 47.8244 19.5942 47.8244C17.6192 46.4744 6.76921 50.5744 14.1192 51.7244C34.0442 54.9744 50.4692 50.2244 45.2942 47.9494ZM38.4442 35.7994C39.1692 35.3244 39.9442 34.9244 40.7442 34.5744C40.7442 34.5744 36.9692 35.2244 33.1942 35.5744C29.1942 35.9744 25.1692 36.0244 21.1692 35.7244C15.2942 34.9494 24.3942 32.7244 24.3942 32.7244C21.6442 32.7244 18.9442 33.3744 16.4942 34.5994C11.3692 37.0994 29.2442 38.2244 38.4442 35.7994ZM40.6942 41.8494C40.6442 41.9494 40.5942 42.0244 40.4942 42.0994C53.0192 38.8244 48.4192 30.4994 42.4192 32.5744C42.0942 32.7244 41.8192 32.9244 41.6442 33.1994C41.9942 33.0744 42.3442 32.9744 42.7192 32.8994C45.7192 32.2994 50.0192 36.9744 40.6942 41.8494ZM41.0192 53.3744C33.4942 54.6744 25.7942 54.7744 18.2192 53.7244C18.2192 53.7244 19.3692 54.6744 25.2442 55.0494C34.2442 55.6244 48.0692 54.7244 48.3942 50.4744C48.4692 50.4994 47.8192 52.0994 41.0192 53.3744Z" fill="white"/>
</svg>
