<svg width="61" height="61" viewBox="0 0 61 61" fill="none" xmlns="http://www.w3.org/2000/svg">
<path d="M3.9743 4.73077V57.2308H56.4743V4.73077H3.9743ZM32.0993 45.512C32.0993 50.6226 29.0806 53.114 24.7106 53.114C20.7638 53.114 18.4727 51.0702 17.3102 48.6034L21.3274 46.1718C22.102 47.5464 22.6903 48.7089 24.3813 48.7089C25.7876 48.7089 26.9431 48.0749 26.9431 45.6081V29.1058H32.0993V45.512ZM43.7419 52.9968C39.161 52.9968 36.2009 50.9296 34.7559 48.0749L38.779 45.7464C39.8337 47.4737 41.2106 48.6245 43.6423 48.6245C45.686 48.6245 46.8731 47.7198 46.8731 46.3101C46.8731 44.6191 45.6509 44.0202 43.395 43.0288L42.1622 42.4991C38.602 40.9851 36.2419 39.0819 36.2419 35.0636C36.2419 31.364 39.0602 28.6616 43.4653 28.6616C46.6024 28.6616 48.8559 29.6366 50.479 32.4913L46.6306 34.9651C45.7845 33.4499 44.8727 32.8558 43.4595 32.8558C42.0145 32.8558 41.0981 33.7722 41.0981 34.9651C41.0981 36.4452 42.0145 37.0441 44.1286 37.9605L45.3614 38.489C49.5556 40.2866 51.9169 42.1218 51.9169 46.2421C51.9181 50.6835 48.4294 52.9968 43.7419 52.9968Z" fill="#00FFB2"/>
</svg>
