<svg width="31" height="25" viewBox="0 0 31 25" fill="none" xmlns="http://www.w3.org/2000/svg">
<path d="M30.8333 2.94118C29.7291 3.45588 28.5389 3.79412 27.3056 3.95588C28.5675 3.17647 29.5427 1.94118 30.0016 0.455882C28.8113 1.19118 27.492 1.70588 26.101 2C24.9681 0.735294 23.3763 0 21.5695 0C18.1995 0 15.4461 2.82353 15.4461 6.30882C15.4461 6.80882 15.5035 7.29412 15.6039 7.75C10.4987 7.48529 5.95282 4.97059 2.927 1.16176C2.39641 2.08824 2.09526 3.17647 2.09526 4.32353C2.09526 6.51471 3.17079 8.45588 4.83427 9.55882C3.8161 9.55882 2.86964 9.26471 2.0379 8.82353V8.86765C2.0379 11.9265 4.16027 14.4853 6.97098 15.0588C6.06858 15.3121 5.12121 15.3473 4.20329 15.1618C4.59279 16.4154 5.35559 17.5124 6.38448 18.2984C7.41337 19.0845 8.65661 19.5201 9.93943 19.5441C7.76491 21.3095 5.06945 22.2637 2.29603 22.25C1.80846 22.25 1.32088 22.2206 0.833313 22.1618C3.55798 23.9559 6.7989 25 10.2693 25C21.5695 25 27.7788 15.3824 27.7788 7.04412C27.7788 6.76471 27.7788 6.5 27.7645 6.22059C28.9691 5.33823 30.0016 4.22059 30.8333 2.94118Z" fill="white"/>
</svg>
