<svg width="60" height="60" viewBox="0 0 60 60" fill="none" xmlns="http://www.w3.org/2000/svg">
<path d="M56.25 42L56.25 13.9987L32.2875 0V10.7513L41.6737 16.2488C42.045 16.5 42.045 16.9987 41.6737 17.1262L30.555 23.625C30.1837 23.8763 29.8163 23.7488 29.5688 23.625L18.45 17.1262C18.0788 16.9987 18.0788 16.3763 18.45 16.2488L27.84 10.7513V0L3.75 13.9987L3.75 42L12.8925 36.6263L12.8925 25.6238C12.8925 25.2488 13.3837 25.0012 13.6313 25.125L24.75 31.6237C25.1213 31.875 25.245 32.1262 25.245 32.5013L25.245 45.4988C25.245 45.8738 24.75 46.125 24.5025 46.0013L15.1163 40.5L5.97375 45.8737L29.9362 60L53.9025 46.0013L44.76 40.6237L35.3775 46.125C35.0063 46.3763 34.635 46.125 34.635 45.6263L34.635 32.625C34.635 32.25 34.8825 31.875 35.13 31.7512L46.2487 25.2487C46.62 25.0012 46.9875 25.2488 46.9875 25.7513L46.9875 36.75L56.25 42Z" fill="#00FFB2"/>
</svg>
